<?xml version="1.0" standalone="no"?>
<!DOCTYPE svg PUBLIC "-//W3C//DTD SVG 20010904//EN"
 "http://www.w3.org/TR/2001/REC-SVG-20010904/DTD/svg10.dtd">
<svg version="1.0" xmlns="http://www.w3.org/2000/svg"
 width="1080.000000pt" height="1080.000000pt" viewBox="0 0 1080.000000 1080.000000"
 preserveAspectRatio="xMidYMid meet">

<g transform="translate(0.000000,1080.000000) scale(0.100000,-0.100000)"
fill="#000000" stroke="none">
<path d="M7300 9433 c-25 -14 -144 -90 -265 -168 -236 -152 -332 -208 -465
-275 -119 -60 -138 -66 -383 -116 -434 -89 -498 -118 -697 -309 -114 -110
-168 -152 -457 -358 -106 -76 -194 -141 -197 -146 -9 -14 73 8 159 43 150 60
367 192 514 311 202 163 333 216 771 310 238 51 311 82 542 232 124 80 211
155 369 314 122 123 179 189 162 189 -4 0 -28 -12 -53 -27z"/>
<path d="M7378 9205 c-45 -240 -205 -404 -568 -582 -143 -70 -254 -132 -247
-139 2 -3 115 18 252 46 136 28 255 50 264 48 11 -2 -8 -29 -68 -91 -291 -302
-644 -470 -1069 -506 -63 -5 -116 -12 -119 -14 -3 -3 26 -15 64 -27 96 -30
272 -37 428 -16 108 14 290 53 339 72 53 20 -31 -124 -119 -204 -235 -215
-747 -395 -1188 -419 -65 -3 -120 -9 -122 -13 -5 -9 109 -41 255 -73 78 -17
130 -21 290 -21 210 0 285 12 422 70 239 100 433 310 530 574 21 58 43 115 48
127 5 11 51 55 102 95 100 80 153 134 193 197 33 53 75 180 75 226 0 52 12 69
112 169 97 97 137 162 159 261 17 81 16 231 -2 274 l-14 33 -17 -87z"/>
<path d="M3800 8336 c-67 -19 -197 -75 -211 -92 -6 -8 -16 -14 -21 -14 -5 0
-40 -17 -76 -37 -72 -41 -197 -93 -223 -93 -9 0 -19 -3 -22 -6 -9 -9 77 -76
133 -104 140 -71 213 -144 297 -295 241 -435 421 -737 488 -818 90 -109 184
-165 461 -275 196 -79 374 -137 664 -218 640 -179 785 -234 1020 -389 105 -70
206 -170 312 -311 84 -111 154 -191 162 -183 8 8 -164 288 -222 359 -27 34
-56 74 -63 88 -23 45 -189 204 -264 253 -165 109 -285 154 -808 299 -199 56
-423 121 -497 146 -325 107 -501 233 -716 509 -122 158 -180 253 -254 421
-104 235 -163 315 -281 387 -32 18 -93 44 -138 58 -44 13 -81 29 -81 34 0 6
25 28 55 50 132 95 216 120 390 113 100 -4 136 -10 212 -36 92 -31 169 -67
251 -117 54 -33 56 -16 5 49 -127 163 -402 270 -573 222z"/>
<path d="M5994 7169 c-189 -39 -357 -103 -547 -209 -92 -51 -280 -180 -273
-188 3 -2 31 10 153 64 17 8 36 14 41 14 6 0 26 9 44 19 53 31 333 126 456
155 201 48 495 49 682 1 186 -46 416 -140 765 -310 298 -145 389 -186 518
-231 213 -74 494 -131 760 -155 75 -6 137 -16 137 -21 0 -12 -45 -139 -105
-293 -56 -147 -101 -266 -205 -550 -44 -121 -87 -236 -95 -255 -8 -19 -35 -93
-60 -165 -26 -71 -71 -197 -102 -280 -30 -82 -76 -211 -103 -285 -26 -74 -91
-252 -144 -395 -54 -143 -122 -327 -153 -410 -212 -573 -467 -1215 -688 -1735
-156 -368 -162 -378 -253 -420 -116 -53 -178 -64 -352 -64 -127 0 -180 4 -230
17 -148 41 -308 113 -475 214 -215 131 -316 162 -560 170 -245 8 -456 -29
-638 -114 -115 -54 -114 -65 5 -37 229 55 326 68 493 68 133 0 175 -3 249 -22
113 -28 230 -83 358 -169 367 -243 779 -345 1063 -263 153 44 279 129 367 248
22 30 63 102 90 161 28 58 54 108 58 111 4 3 19 41 33 85 14 44 46 130 72 190
59 141 231 566 325 805 112 287 114 291 206 535 47 127 102 271 121 320 19 50
47 126 62 170 24 68 140 384 226 615 79 212 188 509 218 595 20 55 56 154 80
220 24 66 66 179 93 250 26 72 77 209 114 305 l65 175 69 -2 c37 0 70 -4 73
-7 3 -3 1 -18 -5 -33 -6 -15 -58 -154 -116 -308 -100 -263 -254 -680 -421
-1140 -302 -831 -386 -1057 -572 -1545 -64 -168 -186 -478 -271 -690 -85 -212
-162 -405 -172 -430 -10 -25 -62 -144 -115 -265 -53 -121 -99 -229 -102 -239
-9 -30 12 -11 56 47 138 187 368 667 656 1367 69 168 315 785 360 905 29 77
73 192 98 255 25 63 57 144 70 180 82 223 576 1510 631 1645 15 35 32 61 42
64 36 7 164 -11 164 -23 0 -7 -18 -57 -41 -112 -168 -408 -323 -789 -650
-1604 -179 -448 -252 -627 -326 -805 -14 -33 -38 -91 -53 -130 -133 -333 -489
-1134 -664 -1494 -30 -63 -53 -117 -50 -120 14 -14 140 163 238 332 88 153
264 502 384 762 250 544 463 1039 1057 2460 102 244 205 479 214 488 10 10
151 -1 170 -12 7 -5 -5 -43 -40 -122 -98 -221 -368 -855 -589 -1384 -184 -443
-311 -738 -497 -1160 -58 -131 -191 -422 -202 -442 -6 -10 -36 -74 -67 -143
-31 -69 -118 -250 -194 -402 -107 -215 -132 -273 -113 -261 70 46 256 342 443
705 158 305 250 498 505 1053 15 33 75 166 132 295 58 129 114 255 125 279 19
43 126 285 278 631 40 91 96 219 125 285 104 236 228 503 300 647 l73 147 -26
5 c-15 3 -97 10 -182 17 -85 6 -159 15 -164 20 -4 4 12 49 38 100 25 51 43 95
40 98 -3 3 -86 13 -185 22 -98 9 -182 19 -186 22 -3 4 10 44 30 89 21 45 35
83 32 86 -2 2 -62 8 -132 13 -130 9 -203 18 -203 25 0 2 14 37 30 79 17 42 30
82 30 89 0 11 -21 16 -77 21 -364 29 -558 57 -768 110 -229 58 -509 170 -775
309 -432 225 -754 311 -1141 304 -95 -1 -187 -9 -235 -19z"/>
<path d="M4170 5780 l0 -580 -1030 0 -1030 0 0 -195 0 -195 1030 0 1030 0 0
-312 c0 -172 0 -958 0 -1745 0 -829 3 -1433 8 -1433 5 0 32 10 61 21 l51 22
-2 1776 -3 1776 -1022 3 -1023 2 0 49 c0 26 -3 69 -6 95 l-7 46 1032 0 1031 0
0 575 0 576 113 -3 112 -3 5 -570 5 -570 891 -3 891 -2 179 44 179 45 -1015 3
-1015 3 -3 578 -2 577 -230 0 -230 0 0 -580z"/>
<path d="M4533 4903 c-10 -3 -13 -64 -13 -256 0 -143 4 -247 9 -241 5 5 14 65
20 134 15 157 31 273 40 288 10 17 88 29 298 48 104 9 192 20 197 25 10 9
-529 12 -551 2z"/>
<path d="M5633 4848 c-4 -7 -54 -98 -109 -203 -82 -153 -105 -189 -120 -187
-11 2 -46 5 -79 5 -71 2 -117 -20 -153 -74 -29 -41 -25 -100 7 -133 l21 -21
47 25 c31 16 49 33 53 49 6 28 19 35 39 22 10 -7 6 -21 -20 -70 -33 -59 -35
-61 -74 -61 -52 0 -65 -14 -65 -65 0 -23 5 -46 12 -53 17 -17 259 -17 276 0
17 17 15 88 -3 108 -14 16 -14 21 1 53 15 31 20 35 37 26 10 -6 52 -13 93 -16
60 -5 77 -10 85 -25 6 -11 9 -20 7 -21 -37 -19 -43 -27 -46 -66 -5 -71 -6 -71
232 -71 152 0 215 3 224 12 7 7 12 30 12 53 0 45 -13 65 -45 65 -16 0 -53 58
-187 298 -92 163 -177 312 -188 330 -20 33 -43 41 -57 20z m-45 -444 c10 -19
9 -21 -13 -16 -21 4 -23 7 -14 24 12 22 12 22 27 -8z"/>
<path d="M4642 4798 c-16 -16 -16 -90 0 -106 7 -7 25 -12 40 -12 l28 0 0 -240
0 -240 -28 0 c-39 0 -52 -17 -52 -65 0 -23 5 -46 12 -53 9 -9 74 -12 229 -12
242 0 249 2 249 65 0 40 -22 65 -56 65 l-24 0 0 240 0 240 24 0 c34 0 56 25
56 65 0 63 -7 65 -249 65 -155 0 -220 -3 -229 -12z"/>
<path d="M6181 4796 c-7 -8 -11 -34 -9 -58 2 -33 8 -45 26 -53 22 -10 22 -11
22 -245 0 -234 0 -235 -22 -245 -18 -8 -24 -20 -26 -53 -5 -72 -7 -72 237 -72
316 0 400 19 484 109 61 65 81 128 75 240 -5 107 -33 164 -122 250 -68 65
-136 104 -223 126 -80 21 -425 22 -442 1z m474 -155 c67 -31 136 -99 160 -157
19 -45 20 -134 1 -178 -26 -62 -78 -88 -203 -102 l-63 -7 0 237 0 236 23 0
c12 0 49 -13 82 -29z"/>
<path d="M7052 4798 c-7 -7 -12 -30 -12 -53 0 -46 13 -65 47 -65 l23 0 0 -240
0 -240 -23 0 c-13 0 -28 -5 -35 -12 -17 -17 -15 -93 2 -107 11 -9 96 -11 318
-9 l303 3 55 31 c74 41 120 108 120 173 0 58 -28 119 -69 154 -42 35 -68 41
-147 34 l-64 -5 0 68 c0 82 -10 93 -80 88 l-50 -3 0 33 c0 31 1 32 44 32 41 0
45 -2 80 -55 22 -34 43 -55 55 -55 26 0 85 42 89 64 4 17 -51 110 -91 154 -20
22 -23 22 -287 22 -193 0 -269 -3 -278 -12z m453 -438 c-15 -47 52 -130 104
-130 38 0 51 17 51 67 0 49 23 60 41 19 33 -72 -33 -115 -173 -116 l-88 0 0
93 0 93 35 -4 c29 -3 35 -8 30 -22z"/>
</g>
</svg>
